<svg width="24" height="24" viewBox="0 0 24 24" fill="none" xmlns="http://www.w3.org/2000/svg">
<path d="M20.1484 14.6318C20.1676 14.5708 20.1846 14.5101 20.1982 14.4492C20.1847 14.5102 20.1675 14.5708 20.1484 14.6318ZM20.1484 14.6318C20.1401 14.6584 20.1324 14.6853 20.123 14.7119M20.1484 14.6318C20.1401 14.6584 20.1324 14.6853 20.123 14.7119M20.123 14.7119C20.1099 14.7494 20.0953 14.7867 20.0801 14.8242C20.0954 14.7867 20.1098 14.7494 20.123 14.7119ZM14.0029 18.1172C13.4812 18.1865 12.9391 18.2306 12.3809 18.2441L12.5254 18.2402C13.0331 18.2232 13.5266 18.1804 14.0029 18.1172ZM9.77734 18.0869C10.1568 18.1432 10.548 18.1857 10.9492 18.2129L11.1611 18.2266C10.6859 18.201 10.2237 18.1533 9.77734 18.0869ZM9.36816 18.0205C9.47328 18.0393 9.57945 18.0566 9.68652 18.0732C9.56383 18.0542 9.44242 18.0337 9.32227 18.0117L9.36816 18.0205ZM16.0928 17.6709C15.9653 17.7096 15.8358 17.747 15.7041 17.7822C15.8358 17.747 15.9653 17.7097 16.0928 17.6709ZM6.14941 16.959C6.63624 17.2162 7.18183 17.4414 7.77344 17.6289L7.94629 17.6836C7.2842 17.485 6.68064 17.2397 6.14941 16.959ZM16.5137 17.5332C16.4085 17.5697 16.3019 17.6056 16.1934 17.6396C16.3018 17.6055 16.4085 17.5698 16.5137 17.5332ZM17.4277 17.168C17.2702 17.2405 17.1073 17.3096 16.9395 17.376C17.0636 17.3267 17.1851 17.2762 17.3037 17.2236L17.4277 17.168ZM19.0254 16.1836C19.0108 16.1959 18.9963 16.2085 18.9814 16.2207C18.9963 16.2085 19.0108 16.1959 19.0254 16.1836ZM4.41406 15.6279C4.03168 15.1707 3.81785 14.6961 3.76465 14.2305C3.81911 14.6951 4.03623 15.1742 4.41406 15.6279ZM19.6367 15.5654C19.6055 15.6045 19.5737 15.6438 19.54 15.6826C19.5736 15.6438 19.6055 15.6045 19.6367 15.5654ZM19.7393 15.4316C19.7126 15.4684 19.6841 15.5044 19.6553 15.541C19.684 15.5044 19.7127 15.4685 19.7393 15.4316ZM20.0732 14.8428C19.9986 15.0222 19.8996 15.2007 19.7764 15.3779C19.8991 15.2008 19.9985 15.0222 20.0732 14.8428ZM20.2217 14.3281C20.2173 14.3551 20.2125 14.3821 20.207 14.4092C20.2125 14.3821 20.2173 14.3551 20.2217 14.3281ZM20.2412 14.1699C20.2402 14.1813 20.2394 14.1927 20.2383 14.2041C20.2395 14.1927 20.2402 14.1813 20.2412 14.1699ZM17.7832 11.25C17.6973 11.3103 17.6045 11.3725 17.5029 11.4346L17.2715 11.5693C16.036 12.2557 14.1765 12.75 12 12.75C9.82354 12.75 7.96398 12.2557 6.72852 11.5693C6.53363 11.4611 6.36441 11.3535 6.2168 11.25H17.7832ZM12 7.25C13.9783 7.25 15.694 7.66016 16.918 8.25H7.08203C8.30598 7.66016 10.0217 7.25 12 7.25ZM5.37695 7.50879C5.24411 7.60157 5.11905 7.69513 5.00293 7.79102C5.11911 7.69511 5.24418 7.60152 5.37695 7.50879ZM18.623 7.50879C18.7558 7.60152 18.8809 7.69511 18.9971 7.79102C18.8809 7.69513 18.7559 7.60157 18.623 7.50879ZM16.9141 17.3857C16.7906 17.4342 16.6648 17.4814 16.5361 17.5264C16.6647 17.4813 16.7907 17.4343 16.9141 17.3857ZM4.45996 15.6836C4.45052 15.6727 4.44186 15.6613 4.43262 15.6504L4.45996 15.6836Z" stroke="black" stroke-width="1.5"/>
</svg>
