<svg width="26" height="24" viewBox="0 0 26 24" fill="none" xmlns="http://www.w3.org/2000/svg">
<path d="M4.17818 9.80763C4.27725 8.78235 5.13885 8 6.16891 8H17.831C18.8611 8 19.7227 8.78234 19.8217 9.80762L20.7881 19.8076C20.9017 20.9827 19.978 22 18.7974 22H5.20258C4.022 22 3.0983 20.9827 3.21185 19.8076L4.17818 9.80763Z" fill="#D9D9D9"/>
<rect x="7.75" y="2.75" width="8.5" height="10.5" rx="4.25" stroke="#D9D9D9" stroke-width="1.5"/>
<rect x="12" width="14" height="14" rx="7" fill="#F97B22"/>
<path d="M16.5732 9.58203L19.0732 7.16992C19.3434 6.89974 19.5518 6.67839 19.6982 6.50586C19.848 6.33008 19.9619 6.15755 20.04 5.98828C20.1182 5.81576 20.1572 5.63346 20.1572 5.44141C20.1572 5.22656 20.1051 5.03776 20.001 4.875C19.8968 4.71224 19.752 4.58691 19.5664 4.49902C19.3841 4.41113 19.1774 4.36719 18.9463 4.36719C18.7054 4.36719 18.4938 4.41602 18.3115 4.51367C18.1325 4.60807 17.9941 4.74479 17.8965 4.92383C17.7988 5.09961 17.7516 5.30469 17.7549 5.53906H16.5439C16.5407 5.09961 16.6416 4.71387 16.8467 4.38184C17.0518 4.04655 17.3366 3.78776 17.7012 3.60547C18.069 3.42318 18.4873 3.33203 18.9561 3.33203C19.4313 3.33203 19.8512 3.41992 20.2158 3.5957C20.5837 3.77148 20.8685 4.01562 21.0703 4.32812C21.2754 4.63737 21.3779 4.98893 21.3779 5.38281C21.3779 5.65625 21.3242 5.91992 21.2168 6.17383C21.1126 6.42773 20.9336 6.70931 20.6797 7.01855C20.4258 7.32454 20.0661 7.69727 19.6006 8.13672L18.3408 9.38672V9.43555H21.4854V10.5H16.5732V9.58203Z" fill="white"/>
</svg>
