<svg width="24" height="25" viewBox="0 0 24 25" fill="none" xmlns="http://www.w3.org/2000/svg">
<path d="M3.70857 5.08224C5.98667 2.83537 9.68022 2.83531 11.9583 5.08224C11.9721 5.09588 11.9849 5.1105 11.9986 5.12424L12.0003 5.12254C12.0139 5.1088 12.0279 5.09531 12.0417 5.08167C14.3198 2.83473 18.0133 2.83478 20.2914 5.08167C22.5695 7.32863 22.5695 10.9717 20.2914 13.2186C20.2776 13.2323 20.2628 13.2449 20.2488 13.2584L20.25 13.2595L12.0003 21.3965L3.75058 13.2595C3.73664 13.246 3.7224 13.2329 3.70857 13.2192C1.43048 10.9722 1.43048 7.3292 3.70857 5.08224Z" fill="#E9655E"/>
</svg>
