<svg width="24" height="25" viewBox="0 0 24 25" fill="none" xmlns="http://www.w3.org/2000/svg">
<g clip-path="url(#clip0_7_46277)">
<path d="M13.9922 6.22461V6.0752C13.9922 4.97562 13.1005 4.08407 12.001 4.08398C10.9013 4.08398 10.0098 4.97556 10.0098 6.0752V6.22461C10.0098 7.32424 10.9013 8.21582 12.001 8.21582V9.71582L11.8213 9.71191C10.0361 9.62149 8.60498 8.18956 8.51465 6.4043L8.50977 6.22461V6.0752C8.50977 4.14714 10.0729 2.58398 12.001 2.58398L12.1807 2.58887C14.0251 2.68247 15.4922 4.20746 15.4922 6.0752V6.22461L15.4873 6.4043C15.394 8.24898 13.8688 9.71574 12.001 9.71582V8.21582C13.1005 8.21574 13.9922 7.32419 13.9922 6.22461Z" fill="black"/>
<path d="M19.6504 14.9902C19.6504 13.7476 18.643 12.7402 17.4004 12.7402H6.59961C5.35697 12.7402 4.34961 13.7476 4.34961 14.9902V21.1025H2.84961V14.9902C2.84961 12.9192 4.52854 11.2402 6.59961 11.2402H17.4004C19.4715 11.2402 21.1504 12.9192 21.1504 14.9902V21.1025H19.6504V14.9902Z" fill="black"/>
<g filter="url(#filter0_d_7_46277)">
<path d="M18.5967 10.6709C18.7975 10.7399 18.9927 10.8215 19.1807 10.915L20.4277 10.0459L22.2188 11.8379L21.3535 13.0684C21.4623 13.2818 21.5561 13.5042 21.6328 13.7344L23.123 14V16.5332L21.6387 16.793C21.5823 16.9647 21.5168 17.1322 21.4424 17.2949L22.2188 18.4014L20.4277 20.1924L19.4326 19.4971C19.1374 19.6663 18.823 19.8061 18.4932 19.9111L18.2852 21.1045H15.752L15.5391 19.9121C15.1976 19.8035 14.8725 19.6578 14.5684 19.4805L13.5488 20.1924L11.7578 18.4014L12.5664 17.2471C12.5022 17.1025 12.4446 16.9543 12.3945 16.8027L10.8535 16.5332V14L12.4014 13.7246C12.4719 13.5145 12.556 13.3105 12.6533 13.1143L11.7578 11.8379L13.5488 10.0459L14.8174 10.9307C15.0134 10.8313 15.2176 10.7454 15.4277 10.6729L15.7441 8.87207H18.2783L18.5967 10.6709ZM17.0098 12.876C15.6862 12.876 14.6133 13.9489 14.6133 15.2725C14.6133 16.5961 15.6862 17.6689 17.0098 17.6689C18.3332 17.6688 19.4062 16.596 19.4062 15.2725C19.4062 13.949 18.3332 12.8762 17.0098 12.876Z" fill="#696969"/>
</g>
</g>
<defs>
<filter id="filter0_d_7_46277" x="8.85352" y="6.87207" width="16.2695" height="16.2324" filterUnits="userSpaceOnUse" color-interpolation-filters="sRGB">
<feFlood flood-opacity="0" result="BackgroundImageFix"/>
<feColorMatrix in="SourceAlpha" type="matrix" values="0 0 0 0 0 0 0 0 0 0 0 0 0 0 0 0 0 0 127 0" result="hardAlpha"/>
<feOffset/>
<feGaussianBlur stdDeviation="1"/>
<feComposite in2="hardAlpha" operator="out"/>
<feColorMatrix type="matrix" values="0 0 0 0 0 0 0 0 0 0 0 0 0 0 0 0 0 0 0.1 0"/>
<feBlend mode="normal" in2="BackgroundImageFix" result="effect1_dropShadow_7_46277"/>
<feBlend mode="normal" in="SourceGraphic" in2="effect1_dropShadow_7_46277" result="shape"/>
</filter>
<clipPath id="clip0_7_46277">
<rect width="24" height="24" fill="white" transform="translate(0 0.103516)"/>
</clipPath>
</defs>
</svg>
