<svg width="24" height="24" viewBox="0 0 24 24" fill="none" xmlns="http://www.w3.org/2000/svg">
<rect x="3" y="3" width="18" height="18" fill="#222222"/>
<path d="M12.5234 17.1074L15.8711 12.918L20 18.0859V21H4V18.2471L8.6377 11.2109L12.5234 17.1074ZM15.1123 7.06641C16.2165 7.06667 17.1121 7.96215 17.1123 9.06641C17.1123 10.1708 16.2167 11.0661 15.1123 11.0664C14.0077 11.0664 13.1123 10.171 13.1123 9.06641C13.1125 7.96198 14.0078 7.06641 15.1123 7.06641Z" fill="white"/>
<path d="M3 19.5H21V21H3V19.5Z" fill="#222222"/>
<path d="M19.5 21V3L21 3V21H19.5Z" fill="#222222"/>
<path d="M3 21L3 3L4.5 3L4.5 21H3Z" fill="#222222"/>
</svg>
