<svg width="24" height="25" viewBox="0 0 24 25" fill="none" xmlns="http://www.w3.org/2000/svg">
<path d="M5.30207 5.50495C8.71916 2.08787 14.26 2.08787 17.6771 5.50495C20.8817 8.70955 21.0798 13.781 18.2738 17.2178L21.2611 20.2051L20.1995 21.2657L17.2279 18.294C13.7905 21.288 8.574 21.1519 5.30207 17.88C1.88499 14.4629 1.88499 8.92204 5.30207 5.50495ZM16.6165 6.5655C13.7852 3.7342 9.19392 3.7342 6.36262 6.5655C3.53132 9.3968 3.53132 13.9881 6.36262 16.8194C9.19392 19.6507 13.7852 19.6507 16.6165 16.8194C19.4478 13.9881 19.4478 9.3968 16.6165 6.5655Z" fill="black"/>
</svg>
