<svg width="71" height="20" viewBox="0 0 71 20" fill="none" xmlns="http://www.w3.org/2000/svg">
<path d="M61.6848 18.8156H57.7539V0H61.6848V10.8302L65.8199 6.3384H70.7463L65.9475 11.2794L70.5931 18.8156H66.0496L63.1908 14.1491L61.6848 15.6963V18.8156Z" fill="black"/>
<path d="M44.7897 17.3935C42.2839 14.4326 42.5787 10.6314 45.5287 8.24532C48.4394 5.89102 51.6847 5.88947 54.013 8.24912L50.9646 10.7148C49.9347 9.92841 48.9345 9.96009 47.8922 10.8032C46.6138 11.8372 46.5851 13.4474 47.838 14.9279C49.1397 16.466 50.6715 16.7493 51.9695 15.6994C53.0315 14.8404 53.2737 13.8348 52.6731 12.7336L55.7215 10.2679C57.575 12.8496 56.9683 16.1257 54.215 18.3527C51.1076 20.8661 47.3931 20.4698 44.7897 17.3935Z" fill="black"/>
<path d="M34.1993 19.1399C31.4936 19.1399 29.8089 17.5927 29.8089 15.1472C29.8089 12.8514 31.4681 11.429 34.5311 11.2044L38.1046 10.9299V10.7303C38.1046 9.50753 37.3389 8.85872 35.935 8.85872C34.2759 8.85872 33.3825 9.48258 33.3825 10.6055H30.1152C30.1152 7.78568 32.4891 5.93906 36.1392 5.93906C39.8404 5.93906 41.9334 7.96036 41.9334 11.5288V18.8155H38.462L38.2067 17.1685C37.7983 18.3164 36.1137 19.1399 34.1993 19.1399ZM35.5776 16.2951C37.0836 16.2951 38.1302 15.5714 38.1302 14.149V13.4753L36.1392 13.65C34.429 13.7997 33.8164 14.174 33.8164 14.9725C33.8164 15.8709 34.3779 16.2951 35.5776 16.2951Z" fill="black"/>
<path d="M0.280778 5.71454C0.280778 2.37066 3.16514 0 7.22366 0C11.2822 0 13.8347 2.19598 13.8347 5.68959H9.72514C9.72514 4.39196 8.72966 3.59342 7.17261 3.59342C5.48794 3.59342 4.41588 4.34205 4.41588 5.56482C4.41588 6.68776 5.00296 7.23675 6.33028 7.51125L9.16359 8.0852C12.5329 8.75897 14.141 10.3311 14.141 13.2507C14.141 16.8192 11.2822 19.14 6.94289 19.14C2.73121 19.14 0 16.919 0 13.4504H4.10958C4.10958 14.7979 5.13059 15.5465 6.96841 15.5465C8.83176 15.5465 10.0059 14.8229 10.0059 13.65C10.0059 12.6269 9.52094 12.1028 8.2702 11.8533L5.38584 11.2794C2.0165 10.6056 0.280778 8.73402 0.280778 5.71454Z" fill="black"/>
<path d="M19.5619 19.7199H15.631V7.24276H19.3322L19.5875 8.54039C20.3787 7.46735 21.8337 6.84349 23.4928 6.84349C26.5303 6.84349 28.2916 8.74002 28.2916 12.009V19.7199H24.3607V12.9324C24.3607 11.3602 23.4673 10.3371 22.1145 10.3371C20.5574 10.3371 19.5619 11.3353 19.5619 12.8824V19.7199Z" fill="black"/>
</svg>
