<svg width="24" height="25" viewBox="0 0 24 25" fill="none" xmlns="http://www.w3.org/2000/svg">
<path d="M13.9922 6.98389V6.83447C13.9922 5.73489 13.1005 4.84334 12.001 4.84326C10.9013 4.84326 10.0098 5.73484 10.0098 6.83447V6.98389C10.0098 8.08352 10.9013 8.9751 12.001 8.9751V10.4751L11.8213 10.4712C10.0361 10.3808 8.60498 8.94884 8.51465 7.16357L8.50977 6.98389V6.83447C8.50977 4.90641 10.0729 3.34326 12.001 3.34326L12.1807 3.34814C14.0251 3.44175 15.4922 4.96674 15.4922 6.83447V6.98389L15.4873 7.16357C15.394 9.00825 13.8688 10.475 12.001 10.4751V8.9751C13.1005 8.97502 13.9922 8.08347 13.9922 6.98389Z" fill="black"/>
<path d="M19.6504 15.7515C19.6504 14.5088 18.643 13.5015 17.4004 13.5015H6.59961C5.35697 13.5015 4.34961 14.5088 4.34961 15.7515V21.8638H2.84961V15.7515C2.84961 13.6804 4.52854 12.0015 6.59961 12.0015H17.4004C19.4715 12.0015 21.1504 13.6804 21.1504 15.7515V21.8638H19.6504V15.7515Z" fill="black"/>
</svg>
