<svg width="24" height="25" viewBox="0 0 24 25" fill="none" xmlns="http://www.w3.org/2000/svg">
<path d="M8.57933 6.51666C8.57933 4.63635 10.1036 3.11206 11.9839 3.11206C13.8642 3.11206 15.3885 4.63635 15.3885 6.51666V6.66289C15.3885 8.5432 13.8642 10.0675 11.9839 10.0675C10.1036 10.0675 8.57933 8.5432 8.57933 6.66289V6.51666Z" fill="black"/>
<path d="M3.70117 15.4792C3.70117 13.5428 5.27097 11.973 7.20742 11.973H16.9957C18.9322 11.973 20.502 13.5428 20.502 15.4792V21.1609H3.70117V15.4792Z" fill="black"/>
<path d="M19.6504 15.5703C19.6504 14.3277 18.643 13.3203 17.4004 13.3203H6.59961C5.35697 13.3203 4.34961 14.3277 4.34961 15.5703V21.6826H2.84961V15.5703C2.84961 13.4993 4.52854 11.8203 6.59961 11.8203H17.4004C19.4715 11.8203 21.1504 13.4993 21.1504 15.5703V21.6826H19.6504V15.5703Z" fill="black"/>
<path d="M3.99219 19.9471H19.9023V21.6815H3.99219V19.9471Z" fill="black"/>
</svg>
