<svg width="24" height="25" viewBox="0 0 24 25" fill="none" xmlns="http://www.w3.org/2000/svg">
<path d="M15.7726 13.3694L14.6496 12.2464C14.8201 11.3566 14.5861 10.5976 13.9477 9.96945C13.3092 9.34125 12.5432 9.10022 11.6496 9.24637L10.5265 8.12332C10.7586 8.01562 10.9974 7.93806 11.2429 7.89062C11.4884 7.84319 11.7406 7.81947 11.9996 7.81947C13.1342 7.81947 14.0973 8.21531 14.889 9.00697C15.6807 9.79864 16.0765 10.7618 16.0765 11.8964C16.0765 12.1553 16.0544 12.4076 16.0101 12.6531C15.9659 12.8986 15.8867 13.1374 15.7726 13.3694ZM18.9534 16.481L17.8496 15.4464C18.4829 14.963 19.0496 14.4255 19.5496 13.8339C20.0496 13.2422 20.4663 12.5964 20.7996 11.8964C19.9663 10.213 18.7621 8.87554 17.1871 7.88387C15.6121 6.89221 13.8829 6.39637 11.9996 6.39637C11.5163 6.39637 11.0454 6.42971 10.5871 6.49637C10.1288 6.56304 9.66625 6.66304 9.19959 6.79637L8.03424 5.63102C8.67012 5.37974 9.31851 5.19448 9.97941 5.07525C10.6403 4.95602 11.3137 4.8964 11.9996 4.8964C14.1483 4.8964 16.122 5.45473 17.9207 6.5714C19.7194 7.68807 21.1028 9.19896 22.0707 11.1041C22.1374 11.231 22.1858 11.3589 22.2159 11.4877C22.246 11.6166 22.2611 11.7528 22.2611 11.8964C22.2611 12.04 22.2486 12.1762 22.2236 12.305C22.1986 12.4339 22.1528 12.5618 22.0861 12.6887C21.7322 13.4412 21.288 14.1361 20.7534 14.7733C20.2188 15.4105 19.6188 15.9797 18.9534 16.481ZM11.9996 18.8963C9.89447 18.8963 7.96499 18.3338 6.21116 17.2088C4.45731 16.0838 3.06308 14.6021 2.02846 12.7637C1.94513 12.6368 1.88424 12.4989 1.84579 12.3502C1.80732 12.2015 1.78809 12.0502 1.78809 11.8964C1.78809 11.7425 1.80475 11.5938 1.83809 11.4502C1.87142 11.3066 1.92975 11.1663 2.01309 11.0291C2.38489 10.3496 2.80604 9.70247 3.27656 9.08772C3.74708 8.47297 4.2881 7.92202 4.89964 7.43485L2.64194 5.16175C2.50347 5.01303 2.4352 4.83643 2.43714 4.63195C2.43905 4.42747 2.51244 4.25279 2.65731 4.10792C2.80218 3.96306 2.97782 3.89062 3.18424 3.89062C3.39064 3.89062 3.56627 3.96306 3.71114 4.10792L20.288 20.6848C20.4265 20.8233 20.4999 20.9947 20.5082 21.1992C20.5165 21.4037 20.4432 21.5835 20.288 21.7386C20.1432 21.8835 19.9675 21.9559 19.7611 21.9559C19.5547 21.9559 19.3791 21.8835 19.2342 21.7386L15.715 18.2502C15.1252 18.4784 14.5191 18.6431 13.8967 18.7444C13.2743 18.8457 12.6419 18.8963 11.9996 18.8963ZM5.95346 8.48865C5.36756 8.94122 4.84095 9.45308 4.37364 10.0242C3.90632 10.5954 3.51497 11.2194 3.19959 11.8964C4.03292 13.5797 5.23709 14.9172 6.81209 15.9089C8.38709 16.9005 10.1163 17.3964 11.9996 17.3964C12.4291 17.3964 12.8519 17.3675 13.2679 17.3098C13.6839 17.2521 14.0971 17.163 14.5073 17.0425L13.2419 15.7463C13.0393 15.8348 12.8371 15.8947 12.6352 15.9262C12.4332 15.9576 12.2214 15.9733 11.9996 15.9733C10.865 15.9733 9.90185 15.5774 9.11019 14.7858C8.31852 13.9941 7.92269 13.031 7.92269 11.8964C7.92269 11.6746 7.93999 11.4627 7.97461 11.2608C8.00923 11.0589 8.06756 10.8566 8.14961 10.654L5.95346 8.48865Z" fill="#E0E0E0"/>
</svg>
