<svg width="24" height="25" viewBox="0 0 24 25" fill="none" xmlns="http://www.w3.org/2000/svg">
<path d="M12.0021 15.9734C13.1352 15.9734 14.0976 15.5768 14.8892 14.7836C15.6809 13.9904 16.0767 13.0273 16.0767 11.8942C16.0767 10.7611 15.6802 9.79873 14.887 9.00706C14.0938 8.21539 13.1307 7.81956 11.9976 7.81956C10.8645 7.81956 9.9021 8.21614 9.11044 9.00931C8.31877 9.80249 7.92294 10.7656 7.92294 11.8987C7.92294 13.0318 8.31952 13.9942 9.11269 14.7859C9.90587 15.5775 10.869 15.9734 12.0021 15.9734ZM11.9998 14.5965C11.2498 14.5965 10.6123 14.334 10.0873 13.809C9.56234 13.284 9.29984 12.6465 9.29984 11.8965C9.29984 11.1465 9.56234 10.509 10.0873 9.98396C10.6123 9.45896 11.2498 9.19646 11.9998 9.19646C12.7498 9.19646 13.3873 9.45896 13.9123 9.98396C14.4373 10.509 14.6998 11.1465 14.6998 11.8965C14.6998 12.6465 14.4373 13.284 13.9123 13.809C13.3873 14.334 12.7498 14.5965 11.9998 14.5965ZM11.9998 18.8964C9.89472 18.8964 7.96941 18.3349 6.22391 17.2118C4.47839 16.0887 3.08513 14.6112 2.04411 12.7791C1.96078 12.6356 1.89988 12.4908 1.86141 12.345C1.82294 12.1992 1.80371 12.0495 1.80371 11.896C1.80371 11.7424 1.82294 11.5929 1.86141 11.4474C1.89988 11.3019 1.96078 11.1574 2.04411 11.0138C3.08513 9.18174 4.47839 7.70418 6.22391 6.58111C7.96941 5.45803 9.89472 4.89648 11.9998 4.89648C14.105 4.89648 16.0303 5.45803 17.7758 6.58111C19.5213 7.70418 20.9145 9.18174 21.9556 11.0138C22.0389 11.1574 22.0998 11.3021 22.1383 11.4479C22.1767 11.5938 22.196 11.7434 22.196 11.897C22.196 12.0505 22.1767 12.2 22.1383 12.3455C22.0998 12.491 22.0389 12.6356 21.9556 12.7791C20.9145 14.6112 19.5213 16.0887 17.7758 17.2118C16.0303 18.3349 14.105 18.8964 11.9998 18.8964ZM11.9998 17.3965C13.8832 17.3965 15.6123 16.9006 17.1873 15.909C18.7623 14.9173 19.9665 13.5798 20.7998 11.8965C19.9665 10.2131 18.7623 8.87563 17.1873 7.88396C15.6123 6.89229 13.8832 6.39646 11.9998 6.39646C10.1165 6.39646 8.38734 6.89229 6.81234 7.88396C5.23734 8.87563 4.03317 10.2131 3.19984 11.8965C4.03317 13.5798 5.23734 14.9173 6.81234 15.909C8.38734 16.9006 10.1165 17.3965 11.9998 17.3965Z" fill="#E0E0E0"/>
</svg>
